<svg width="24" height="24" viewBox="0 0 24 24" fill="none" xmlns="http://www.w3.org/2000/svg">
<path d="M21 16.1244C21 16.3234 20.921 16.5141 20.7803 16.6548C20.6397 16.7954 20.4489 16.8744 20.25 16.8744H18.2653C18.1039 17.4162 17.7718 17.8913 17.3186 18.2292C16.8654 18.567 16.3153 18.7495 15.75 18.7495C15.1847 18.7495 14.6345 18.567 14.1813 18.2292C13.7281 17.8913 13.3961 17.4162 13.2347 16.8744H3.74999C3.55107 16.8744 3.36031 16.7954 3.21966 16.6548C3.079 16.5141 2.99999 16.3234 2.99999 16.1244C2.99999 15.9255 3.079 15.7348 3.21966 15.5941C3.36031 15.4535 3.55107 15.3744 3.74999 15.3744H13.2347C13.3961 14.8327 13.7281 14.3576 14.1813 14.0197C14.6345 13.6819 15.1847 13.4994 15.75 13.4994C16.3153 13.4994 16.8654 13.6819 17.3186 14.0197C17.7718 14.3576 18.1039 14.8327 18.2653 15.3744H20.25C20.4489 15.3744 20.6397 15.4535 20.7803 15.5941C20.921 15.7348 21 15.9255 21 16.1244ZM3.74989 8.62435H7.23458C7.39602 9.16608 7.72804 9.64122 8.18124 9.97906C8.63445 10.3169 9.18462 10.4994 9.74989 10.4994C10.3152 10.4994 10.8653 10.3169 11.3185 9.97906C11.7717 9.64122 12.1038 9.16608 12.2652 8.62435H20.25C20.4489 8.62435 20.6397 8.54533 20.7803 8.40468C20.921 8.26403 21 8.07326 21 7.87435C21 7.67544 20.921 7.48467 20.7803 7.34402C20.6397 7.20337 20.4489 7.12435 20.25 7.12435H12.2653C12.1039 6.58262 11.7718 6.10749 11.3186 5.76964C10.8654 5.4318 10.3153 5.2493 9.74999 5.2493C9.18471 5.2493 8.63454 5.4318 8.18134 5.76964C7.72813 6.10749 7.39611 6.58262 7.23467 7.12435H3.74999C3.55107 7.12434 3.3603 7.20334 3.21964 7.34399C3.07898 7.48463 2.99995 7.67539 2.99994 7.8743C2.99993 8.07322 3.07893 8.26399 3.21958 8.40465C3.36022 8.54531 3.55098 8.62434 3.74989 8.62435V8.62435Z" fill="black"/>
</svg>
