<svg width="24" height="24" viewBox="0 0 24 24" fill="none" xmlns="http://www.w3.org/2000/svg">
<path d="M12 2C11.4696 2 10.9609 2.21071 10.5858 2.58579C10.2107 2.96086 10 3.46957 10 4V14.5C9.23743 14.9403 8.64145 15.6199 8.30448 16.4334C7.96752 17.2469 7.9084 18.1488 8.1363 18.9994C8.3642 19.8499 8.86638 20.6015 9.56496 21.1375C10.2635 21.6736 11.1195 21.9641 12 21.9641C12.8805 21.9641 13.7365 21.6736 14.435 21.1375C15.1336 20.6015 15.6358 19.8499 15.8637 18.9994C16.0916 18.1488 16.0325 17.2469 15.6955 16.4334C15.3586 15.6199 14.7626 14.9403 14 14.5V4C14 3.46957 13.7893 2.96086 13.4142 2.58579C13.0391 2.21071 12.5304 2 12 2Z" stroke="black" stroke-width="2" stroke-linecap="round" stroke-linejoin="round"/>
</svg>
